<svg xmlns="http://www.w3.org/2000/svg" x="0px" y="0px"
width="24" height="24"
viewBox="0 0 172 172"
style=" fill:#000000;"><g fill="none" fill-rule="nonzero" stroke="none" stroke-width="1" stroke-linecap="butt" stroke-linejoin="miter" stroke-miterlimit="10" stroke-dasharray="" stroke-dashoffset="0" font-family="none" font-weight="none" font-size="none" text-anchor="none" style="mix-blend-mode: normal"><path d="M0,172v-172h172v172z" fill="none"></path><g fill="#da1b60"><path d="M86,14.33333c-39.49552,0 -71.66667,32.17115 -71.66667,71.66667c0,39.49552 32.17115,71.66667 71.66667,71.66667c39.49552,0 71.66667,-32.17115 71.66667,-71.66667c0,-39.49552 -32.17115,-71.66667 -71.66667,-71.66667zM86,28.66667c31.74921,0 57.33333,25.58412 57.33333,57.33333c0,13.28034 -4.52029,25.44568 -12.05176,35.14746l-15.41113,-15.41114c-2.666,4.0205 -6.11362,7.46812 -10.13412,10.13412l15.41114,15.41113c-9.70178,7.53147 -21.86713,12.05176 -35.14746,12.05176c-31.74921,0 -57.33333,-25.58412 -57.33333,-57.33333c0,-13.28034 4.52029,-25.44568 12.05176,-35.14746l15.41113,15.41113c2.666,-4.0205 6.11362,-7.46812 10.13412,-10.13412l-15.41113,-15.41113c9.70178,-7.53147 21.86713,-12.05176 35.14746,-12.05176zM86,64.5c-11.78924,0 -21.5,9.71076 -21.5,21.5c0,11.78924 9.71076,21.5 21.5,21.5c11.78924,0 21.5,-9.71076 21.5,-21.5c0,-11.78924 -9.71076,-21.5 -21.5,-21.5zM86,78.83333c4.04292,0 7.16667,3.12374 7.16667,7.16667c0,4.04292 -3.12374,7.16667 -7.16667,7.16667c-4.04292,0 -7.16667,-3.12374 -7.16667,-7.16667c0,-4.04292 3.12374,-7.16667 7.16667,-7.16667z"></path></g></g></svg>